# Blender 4.3.2
# www.blender.org
mtllib myappliances_microwave.mtl
o Cube
v -0.500000 0.132131 0.500000
v -0.500000 -0.500000 0.500000
v -0.500000 0.132131 -0.147555
v -0.500000 -0.500000 -0.147555
v 0.500000 0.132131 0.500000
v 0.500000 -0.500000 0.500000
v 0.500000 0.132131 -0.147556
v 0.500000 -0.500000 -0.147556
v 0.500000 -0.500000 -0.177611
v 0.467557 -0.467557 -0.210054
v 0.467557 0.099687 -0.210054
v 0.500000 0.132131 -0.177611
v -0.500000 0.132131 -0.177610
v -0.467557 0.099687 -0.210054
v -0.467557 -0.467557 -0.210054
v -0.500000 -0.500000 -0.177610
vn -0.0000 1.0000 -0.0000
vn 1.0000 -0.0000 -0.0000
vn -0.0000 -1.0000 -0.0000
vn -1.0000 -0.0000 -0.0000
vn -0.0000 -0.0000 1.0000
vn -0.0000 -0.0000 -1.0000
vn 0.7071 -0.0000 -0.7071
vn -0.7071 -0.0000 -0.7071
vn -0.0000 0.7071 -0.7071
vn -0.0000 -0.7071 -0.7071
vt 0.345990 -0.000000
vt 0.345990 0.487273
vt 0.030454 0.487273
vt 0.030454 -0.000000
vt 0.015809 0.487273
vt 0.015809 -0.000000
vt 1.003906 0.454495
vt 0.695886 0.454495
vt 0.695886 0.138959
vt 1.003906 0.138959
vt 0.691980 0.000000
vt 0.691980 0.487273
vt 0.376444 0.487273
vt 0.376444 -0.000000
vt 1.000000 0.345990
vt 0.691980 0.345990
vt 0.691980 0.030454
vt 1.000000 0.030454
vt 0.690832 0.486264
vt 0.382812 0.486264
vt 0.382812 -0.001008
vt 0.690832 -0.001008
vt 0.361799 0.487273
vt 0.361799 -0.000000
vt 0.691980 0.015809
vt 1.000000 0.015809
vt 0.459205 0.721430
vt 0.459205 0.997833
vt 0.003550 0.997833
vt 0.003550 0.721430
vt 0.988097 0.484949
vt 0.711695 0.484949
vt 0.695886 0.469140
vt 1.003906 0.469140
vt 0.707789 0.000000
vt 0.984191 0.000000
vt -0.000000 0.471464
vt 0.000000 0.015809
vt 0.345990 0.471464
vt 0.345990 0.015809
s 0
usemtl Material
f 1/1/1 5/2/1 7/3/1 3/4/1
f 3/4/1 7/3/1 12/5/1 13/6/1
f 8/7/2 7/8/2 5/9/2 6/10/2
f 6/11/3 2/12/3 4/13/3 8/14/3
f 2/15/4 1/16/4 3/17/4 4/18/4
f 6/19/5 5/20/5 1/21/5 2/22/5
f 8/14/3 4/13/3 16/23/3 9/24/3
f 4/18/4 3/17/4 13/25/4 16/26/4
f 15/27/6 14/28/6 11/29/6 10/30/6
f 10/31/7 11/32/7 12/33/7 9/34/7
f 14/35/8 15/36/8 16/26/8 13/25/8
f 13/6/9 12/5/9 11/37/9 14/38/9
f 9/24/10 16/23/10 15/39/10 10/40/10
f 7/8/2 8/7/2 9/34/2 12/33/2
