# Blender 4.3.2
# www.blender.org
mtllib myappliances_dishwasher_open.mtl
o Cube
v -0.499539 0.500017 0.499683
v -0.499539 -0.499983 0.499683
v -0.499539 0.500017 -0.400317
v -0.499539 -0.499983 -0.400317
v 0.500461 0.500017 0.499683
v 0.500461 -0.499983 0.499683
v 0.500461 0.500017 -0.400317
v 0.500461 -0.499983 -0.400317
vn -0.0000 1.0000 -0.0000
vn -0.0000 -0.0000 -1.0000
vn 1.0000 -0.0000 -0.0000
vn -0.0000 -1.0000 -0.0000
vn -1.0000 -0.0000 -0.0000
vn -0.0000 -0.0000 1.0000
vt 0.326077 0.000000
vt 0.326077 0.326077
vt 0.000000 0.326077
vt 0.000000 0.000000
vt 0.326077 0.980279
vt 0.000000 0.980279
vt 0.000000 0.654202
vt 0.326077 0.654202
vt 0.324029 0.978421
vt -0.002048 0.978421
vt -0.002048 0.652344
vt 0.324029 0.652344
vt 0.324029 0.654202
vt 0.324029 0.980279
vt -0.002048 0.980279
vt -0.002048 0.654202
vt 0.326077 0.978231
vt 0.000000 0.978231
vt 0.000000 0.652154
vt 0.326077 0.652154
vt 0.325887 0.982327
vt -0.000190 0.982327
vt -0.000190 0.656250
vt 0.325887 0.656250
s 0
usemtl Material
f 1/1/1 5/2/1 7/3/1 3/4/1
f 4/5/2 3/6/2 7/7/2 8/8/2
f 8/9/3 7/10/3 5/11/3 6/12/3
f 6/13/4 2/14/4 4/15/4 8/16/4
f 2/17/5 1/18/5 3/19/5 4/20/5
f 6/21/6 5/22/6 1/23/6 2/24/6
o Cube.001
v -0.499539 -0.186362 -1.196600
v -0.499539 -0.186362 -0.489417
v -0.499539 -0.293826 -1.196600
v -0.499539 -0.293826 -0.489417
v 0.500461 -0.186362 -1.196600
v 0.500461 -0.186362 -0.489417
v 0.500461 -0.293827 -1.196600
v 0.500461 -0.293827 -0.489417
vn -0.0000 -0.0000 -1.0000
vn -0.0000 -1.0000 -0.0000
vn 1.0000 -0.0000 -0.0000
vn -0.0000 -0.0000 1.0000
vn -1.0000 -0.0000 -0.0000
vn -0.0000 1.0000 -0.0000
vt 0.122182 0.652154
vt 0.122182 0.978231
vt 0.078380 0.978231
vt 0.078380 0.652154
vt 0.960875 0.359185
vt 0.730279 0.359185
vt 0.730279 0.033108
vt 0.960875 0.033108
vt 0.796558 0.335875
vt 0.796558 0.105279
vt 0.840360 0.105279
vt 0.840360 0.335875
vt 0.165984 0.652154
vt 0.165984 0.978231
vt 0.122182 0.978231
vt 0.122182 0.652154
vt 0.884162 0.105279
vt 0.884162 0.335875
vt 0.279329 0.978231
vt 0.048733 0.978231
vt 0.048733 0.652154
vt 0.279329 0.652154
s 0
usemtl Material
f 9/25/7 13/26/7 15/27/7 11/28/7
f 12/29/8 11/30/8 15/31/8 16/32/8
f 16/33/9 15/34/9 13/35/9 14/36/9
f 14/37/10 10/38/10 12/39/10 16/40/10
f 10/36/11 9/35/11 11/41/11 12/42/11
f 14/43/12 13/44/12 9/45/12 10/46/12
o Cube.002
v -0.499539 -0.290124 -0.391725
v -0.499539 -0.495335 -0.391725
v -0.499539 -0.290124 -0.499190
v -0.499539 -0.495335 -0.499190
v 0.500461 -0.290124 -0.391726
v 0.500461 -0.495335 -0.391726
v 0.500461 -0.290124 -0.499190
v 0.500461 -0.495335 -0.499190
vn -0.0000 1.0000 -0.0000
vn -0.0000 -0.0000 -1.0000
vn 1.0000 -0.0000 -0.0000
vn -0.0000 -1.0000 -0.0000
vn -1.0000 -0.0000 -0.0000
vn -0.0000 -0.0000 1.0000
vt 0.209787 0.652154
vt 0.209787 0.978231
vt 0.165984 0.978231
vt 0.165984 0.652154
vt 0.684040 0.956842
vt 0.617125 0.956842
vt 0.617125 0.630765
vt 0.684040 0.630765
vt 0.605151 0.887165
vt 0.605151 0.820250
vt 0.648954 0.820250
vt 0.648954 0.887165
vt 0.253589 0.652154
vt 0.253589 0.978231
vt 0.209787 0.978231
vt 0.209787 0.652154
vt 0.692756 0.820250
vt 0.692756 0.887165
vt 0.193900 0.978231
vt 0.126986 0.978231
vt 0.126986 0.652154
vt 0.193900 0.652154
s 0
usemtl Material
f 17/47/13 21/48/13 23/49/13 19/50/13
f 20/51/14 19/52/14 23/53/14 24/54/14
f 24/55/15 23/56/15 21/57/15 22/58/15
f 22/59/16 18/60/16 20/61/16 24/62/16
f 18/58/17 17/57/17 19/63/17 20/64/17
f 22/65/18 21/66/18 17/67/18 18/68/18
o Cube.003
v -0.499539 0.500003 -0.397553
v -0.499539 0.420284 -0.397553
v -0.499539 0.500003 -0.505017
v -0.499539 0.420284 -0.505017
v 0.500461 0.500003 -0.397553
v 0.500461 0.420284 -0.397553
v 0.500461 0.500003 -0.505018
v 0.500461 0.420284 -0.505018
vn -0.0000 1.0000 -0.0000
vn -0.0000 -0.0000 -1.0000
vn 1.0000 -0.0000 -0.0000
vn -0.0000 -1.0000 -0.0000
vn -1.0000 -0.0000 -0.0000
vn -0.0000 -0.0000 1.0000
vt 0.058015 -0.000190
vt 0.058015 0.325887
vt 0.014213 0.325887
vt 0.014213 -0.000190
vt 0.956128 0.945123
vt 0.930134 0.945123
vt 0.930134 0.619046
vt 0.956128 0.619046
vt 0.955364 0.852842
vt 0.929370 0.852842
vt 0.929370 0.809040
vt 0.955364 0.809040
vt 0.078380 0.652154
vt 0.078380 0.978231
vt 0.034578 0.978231
vt 0.034578 0.652154
vt 0.981359 0.852842
vt 0.981359 0.809040
vt 0.269531 0.974325
vt 0.243537 0.974325
vt 0.243537 0.648248
vt 0.269531 0.648248
s 0
usemtl Material
f 25/69/19 29/70/19 31/71/19 27/72/19
f 28/73/20 27/74/20 31/75/20 32/76/20
f 32/77/21 31/78/21 29/79/21 30/80/21
f 30/81/22 26/82/22 28/83/22 32/84/22
f 26/85/23 25/77/23 27/80/23 28/86/23
f 30/87/24 29/88/24 25/89/24 26/90/24
