# Blender 4.3.2
# www.blender.org
mtllib myappliances_toaster.mtl
o Cube
v -0.180844 -0.498256 0.248638
v -0.180844 -0.498256 -0.251362
v 0.219156 -0.498256 0.248638
v 0.219156 -0.498256 -0.251362
v -0.118703 0.001744 0.170962
v -0.180844 -0.045558 0.248638
v -0.149573 0.001026 0.209549
v -0.155944 -0.001108 0.217514
v -0.161923 -0.004593 0.224987
v -0.167326 -0.009322 0.231741
v -0.171990 -0.015153 0.237571
v -0.175774 -0.021907 0.242301
v -0.178562 -0.029380 0.245785
v -0.180269 -0.037344 0.247919
v -0.118703 0.001744 -0.173686
v -0.180844 -0.045558 -0.251362
v -0.149573 0.001026 -0.212273
v -0.155945 -0.001108 -0.220238
v -0.161923 -0.004593 -0.227711
v -0.167326 -0.009322 -0.234465
v -0.171991 -0.015153 -0.240295
v -0.175774 -0.021907 -0.245025
v -0.178562 -0.029380 -0.248509
v -0.180269 -0.037344 -0.250643
v 0.157015 0.001744 0.170962
v 0.219156 -0.045558 0.248638
v 0.187885 0.001026 0.209549
v 0.194257 -0.001108 0.217514
v 0.200235 -0.004593 0.224986
v 0.205639 -0.009322 0.231741
v 0.210303 -0.015153 0.237571
v 0.214086 -0.021907 0.242300
v 0.216874 -0.029380 0.245785
v 0.218581 -0.037344 0.247919
v 0.157015 0.001744 -0.173686
v 0.219156 -0.045558 -0.251362
v 0.187885 0.001026 -0.212273
v 0.194257 -0.001108 -0.220238
v 0.200235 -0.004593 -0.227711
v 0.205638 -0.009322 -0.234465
v 0.210303 -0.015153 -0.240295
v 0.214086 -0.021907 -0.245025
v 0.216874 -0.029380 -0.248509
v 0.218581 -0.037344 -0.250643
v -0.143002 0.001744 -0.204059
v 0.181314 0.001744 -0.204059
v -0.143002 0.001744 0.201335
v 0.181314 0.001744 0.201335
v -0.118703 -0.404946 -0.173686
v 0.157015 -0.404946 -0.173686
v -0.118703 -0.404946 0.170962
v 0.157015 -0.404946 0.170962
vn -0.0000 -0.0000 -1.0000
vn 1.0000 -0.0000 -0.0000
vn -0.0000 -1.0000 -0.0000
vn -1.0000 -0.0000 -0.0000
vn -0.0000 0.9962 -0.0872
vn -0.0000 0.9659 -0.2588
vn -0.0000 0.9063 -0.4226
vn -0.0000 0.8192 -0.5736
vn -0.0000 0.7071 -0.7071
vn -0.0000 0.5736 -0.8192
vn -0.0000 0.4226 -0.9063
vn -0.0000 0.2588 -0.9659
vn -0.0000 0.0872 -0.9962
vn -0.1087 0.9941 -0.0000
vn -0.3176 0.9482 -0.0000
vn -0.5036 0.8639 -0.0000
vn -0.6586 0.7525 -0.0000
vn -0.7809 0.6247 -0.0000
vn -0.8724 0.4887 -0.0000
vn -0.9369 0.3495 -0.0000
vn -0.9778 0.2096 -0.0000
vn -0.9976 0.0698 -0.0000
vn 0.1087 0.9941 -0.0000
vn 0.3176 0.9482 -0.0000
vn 0.5036 0.8639 -0.0000
vn 0.6586 0.7525 -0.0000
vn 0.7809 0.6247 -0.0000
vn 0.8724 0.4887 -0.0000
vn 0.9369 0.3495 -0.0000
vn 0.9778 0.2096 -0.0000
vn 0.9976 0.0698 -0.0000
vn -0.0000 0.9962 0.0872
vn -0.0000 0.9659 0.2588
vn -0.0000 0.9063 0.4226
vn -0.0000 0.8192 0.5736
vn -0.0000 0.7071 0.7071
vn -0.0000 0.5736 0.8192
vn -0.0000 0.4226 0.9063
vn -0.0000 0.2588 0.9659
vn -0.0000 0.0872 0.9962
vn -0.0000 -0.0000 1.0000
vn -0.0000 1.0000 -0.0000
vt 0.305985 0.302226
vt 0.059052 0.302226
vt 0.059052 0.026113
vt 0.305985 0.026113
vt 0.296795 0.310038
vt 0.049862 0.310038
vt 0.049862 0.033925
vt 0.296795 0.033925
vt 0.310038 0.027344
vt 0.310038 0.303457
vt 0.033925 0.303457
vt 0.033925 0.027344
vt 0.771698 0.688945
vt 0.962021 0.688945
vt 0.962021 0.910782
vt 0.771698 0.910782
vt 0.308661 0.307363
vt 0.061728 0.307363
vt 0.061728 0.031250
vt 0.308661 0.031250
vt 0.066194 0.053392
vt 0.066194 0.277261
vt 0.061658 0.281797
vt 0.061658 0.048856
vt 0.057260 0.286195
vt 0.057260 0.044457
vt 0.053133 0.290322
vt 0.053133 0.040331
vt 0.049404 0.294052
vt 0.049404 0.036601
vt 0.037832 0.292895
vt 0.037832 0.035444
vt 0.041514 0.032224
vt 0.041514 0.296114
vt 0.045606 0.029613
vt 0.045606 0.298726
vt 0.049982 0.027688
vt 0.049982 0.300650
vt 0.054510 0.026510
vt 0.054510 0.301829
vt 0.290064 0.053392
vt 0.294600 0.048856
vt 0.298998 0.044457
vt 0.303125 0.040331
vt 0.306854 0.036601
vt 0.040507 0.298032
vt 0.040507 0.040581
vt 0.044189 0.037361
vt 0.044189 0.301252
vt 0.048281 0.034750
vt 0.048281 0.303863
vt 0.052657 0.032825
vt 0.052657 0.305788
vt 0.057185 0.031647
vt 0.057185 0.306966
vt 0.290064 0.277261
vt 0.294600 0.281797
vt 0.298998 0.286195
vt 0.303124 0.290322
vt 0.306854 0.294052
vt 0.028641 0.300707
vt 0.028641 0.043256
vt 0.032324 0.040037
vt 0.032324 0.303927
vt 0.036415 0.037425
vt 0.036415 0.306539
vt 0.040792 0.035501
vt 0.040792 0.308463
vt 0.045320 0.034322
vt 0.045320 0.309641
vt 0.035156 0.295570
vt 0.035156 0.038119
vt 0.038839 0.034900
vt 0.038839 0.298790
vt 0.042930 0.032288
vt 0.042930 0.301402
vt 0.047306 0.030364
vt 0.047306 0.303326
vt 0.051835 0.029185
vt 0.051835 0.304504
vt 0.056377 0.028788
vt 0.056377 0.304901
vt 0.303310 0.304901
vt 0.303310 0.028788
vt 0.082967 0.070165
vt 0.082967 0.260488
vt 0.273291 0.070165
vt 0.273291 0.260488
vt 0.958477 0.712021
vt 0.958477 0.902344
vt 0.768154 0.902344
vt 0.768154 0.712021
vt 0.778428 0.704570
vt 0.968751 0.704570
vt 0.968751 0.926407
vt 0.778428 0.926407
vt 0.763886 0.688126
vt 0.954209 0.688126
vt 0.954209 0.909963
vt 0.763886 0.909963
vt 0.774521 0.695938
vt 0.964845 0.695938
vt 0.964845 0.917775
vt 0.774521 0.917775
s 0
usemtl Material
f 2/1/1 16/2/1 36/3/1 4/4/1
f 4/5/2 36/6/2 26/7/2 3/8/2
f 3/9/3 1/10/3 2/11/3 4/12/3
f 25/13/4 35/14/4 50/15/4 52/16/4
f 1/17/4 6/18/4 16/19/4 2/20/4
f 45/21/5 46/22/5 37/23/5 17/24/5
f 17/24/6 37/23/6 38/25/6 18/26/6
f 18/26/7 38/25/7 39/27/7 19/28/7
f 19/28/8 39/27/8 40/29/8 20/30/8
f 20/31/9 40/32/9 41/33/9 21/34/9
f 21/34/10 41/33/10 42/35/10 22/36/10
f 22/36/11 42/35/11 43/37/11 23/38/11
f 23/38/12 43/37/12 44/39/12 24/40/12
f 24/40/13 44/39/13 36/3/13 16/2/13
f 47/41/14 45/21/14 17/24/14 7/42/14
f 7/42/15 17/24/15 18/26/15 8/43/15
f 8/43/16 18/26/16 19/28/16 9/44/16
f 9/44/17 19/28/17 20/30/17 10/45/17
f 10/46/18 20/47/18 21/48/18 11/49/18
f 11/49/19 21/48/19 22/50/19 12/51/19
f 12/51/20 22/50/20 23/52/20 13/53/20
f 13/53/21 23/52/21 24/54/21 14/55/21
f 14/55/22 24/54/22 16/19/22 6/18/22
f 46/22/23 48/56/23 27/57/23 37/23/23
f 37/23/24 27/57/24 28/58/24 38/25/24
f 38/25/25 28/58/25 29/59/25 39/27/25
f 39/27/26 29/59/26 30/60/26 40/29/26
f 40/61/27 30/62/27 31/63/27 41/64/27
f 41/64/28 31/63/28 32/65/28 42/66/28
f 42/66/29 32/65/29 33/67/29 43/68/29
f 43/68/30 33/67/30 34/69/30 44/70/30
f 44/70/31 34/69/31 26/7/31 36/6/31
f 48/56/32 47/41/32 7/42/32 27/57/32
f 27/57/33 7/42/33 8/43/33 28/58/33
f 28/58/34 8/43/34 9/44/34 29/59/34
f 29/59/35 9/44/35 10/45/35 30/60/35
f 30/71/36 10/72/36 11/73/36 31/74/36
f 31/74/37 11/73/37 12/75/37 32/76/37
f 32/76/38 12/75/38 13/77/38 33/78/38
f 33/78/39 13/77/39 14/79/39 34/80/39
f 34/80/40 14/79/40 6/81/40 26/82/40
f 3/83/41 26/82/41 6/81/41 1/84/41
f 15/85/42 35/86/42 46/22/42 45/21/42
f 5/87/42 15/85/42 45/21/42 47/41/42
f 35/86/42 25/88/42 48/56/42 46/22/42
f 25/88/42 5/87/42 47/41/42 48/56/42
f 51/89/42 52/90/42 50/91/42 49/92/42
f 35/93/41 15/94/41 49/95/41 50/96/41
f 5/97/1 25/98/1 52/99/1 51/100/1
f 15/101/2 5/102/2 51/103/2 49/104/2
o Cube.001
v 0.062015 -0.361153 -0.173295
v 0.062015 -0.014992 -0.173295
v 0.062015 -0.361153 0.172867
v 0.062015 -0.014992 0.172867
v -0.011746 -0.361153 -0.173295
v -0.011746 -0.014992 -0.173295
v -0.011746 -0.361153 0.172867
v -0.011746 -0.014992 0.172867
vn 1.0000 -0.0000 -0.0000
vn -0.0000 -0.0000 1.0000
vn -1.0000 -0.0000 -0.0000
vn -0.0000 -0.0000 -1.0000
vn -0.0000 -1.0000 -0.0000
vn -0.0000 1.0000 -0.0000
vt 0.963613 0.971425
vt 0.687500 0.971425
vt 0.687500 0.695312
vt 0.963613 0.695312
vt 0.195233 0.306132
vt 0.195233 0.030019
vt 0.254068 0.030019
vt 0.254068 0.306132
vt 0.963613 0.974101
vt 0.687500 0.974101
vt 0.687500 0.697988
vt 0.963613 0.697988
vt 0.160223 0.303457
vt 0.160223 0.027344
vt 0.219059 0.027344
vt 0.219059 0.303457
vt 0.312903 0.306132
vt 0.312903 0.030019
vt 0.953675 0.971425
vt 0.894840 0.971425
vt 0.894840 0.695312
vt 0.953675 0.695312
s 0
f 53/105/43 54/106/43 56/107/43 55/108/43
f 55/109/44 56/110/44 60/111/44 59/112/44
f 59/113/45 60/114/45 58/115/45 57/116/45
f 57/117/46 58/118/46 54/119/46 53/120/46
f 55/121/47 59/112/47 57/111/47 53/122/47
f 60/123/48 56/124/48 54/125/48 58/126/48
o Cube.002
v 0.057230 -0.184304 -0.283376
v 0.057230 -0.146344 -0.283376
v 0.057230 -0.184304 -0.250085
v 0.057230 -0.146344 -0.250085
v -0.016532 -0.184304 -0.283376
v -0.016532 -0.146344 -0.283376
v -0.016532 -0.184304 -0.250085
v -0.016532 -0.146344 -0.250085
vn 1.0000 -0.0000 -0.0000
vn -0.0000 -0.0000 1.0000
vn -1.0000 -0.0000 -0.0000
vn -0.0000 -0.0000 -1.0000
vn -0.0000 -1.0000 -0.0000
vn -0.0000 1.0000 -0.0000
vt 0.092171 0.862524
vt 0.092171 0.832245
vt 0.118725 0.832245
vt 0.118725 0.862524
vt 0.082506 0.970075
vt 0.052227 0.970075
vt 0.052227 0.911239
vt 0.082506 0.911239
vt 0.118725 0.862524
vt 0.118725 0.832245
vt 0.145280 0.832245
vt 0.145280 0.862524
vt 0.112785 0.970075
vt 0.112785 0.911239
vt 0.065617 0.832245
vt 0.065617 0.891080
vt 0.039062 0.891080
vt 0.039062 0.832245
vt 0.092171 0.832245
vt 0.092171 0.891080
vt 0.065617 0.891080
vt 0.065617 0.832245
s 0
f 61/127/49 62/128/49 64/129/49 63/130/49
f 63/131/50 64/132/50 68/133/50 67/134/50
f 67/135/51 68/136/51 66/137/51 65/138/51
f 65/139/52 66/131/52 62/134/52 61/140/52
f 63/141/53 67/142/53 65/143/53 61/144/53
f 68/145/54 64/146/54 62/147/54 66/148/54
