# Blender 4.3.2
# www.blender.org
mtllib myappliances_fridge.mtl
o Cube
v 0.476924 1.461506 -0.411281
v 0.476924 -0.446191 -0.411281
v 0.500000 1.507658 0.388719
v 0.500000 -0.492342 0.388719
v -0.476924 1.461506 -0.411281
v -0.476924 -0.446191 -0.411281
v -0.500000 1.507658 0.388719
v -0.500000 -0.492342 0.388719
v 0.500000 -0.492342 -0.411281
v -0.500000 -0.492342 -0.411281
v 0.500000 1.507658 -0.411281
v -0.500000 1.507658 -0.411281
v 0.476924 -0.446191 -0.433384
v -0.476924 -0.446191 -0.433384
v 0.476924 1.461506 -0.433384
v -0.476924 1.461506 -0.433384
vn -0.0000 1.0000 -0.0000
vn -0.0000 -0.0000 1.0000
vn -1.0000 -0.0000 -0.0000
vn -0.0000 -1.0000 -0.0000
vn 1.0000 -0.0000 -0.0000
vn -0.0000 -0.0000 -1.0000
vt 0.920107 0.855855
vt 0.920107 0.940107
vt 0.835856 0.940107
vt 0.835856 0.855855
vt 0.828578 0.092064
vt 0.744326 0.092064
vt 0.744326 0.007813
vt 0.828578 0.007813
vt 0.828578 0.176316
vt 0.744326 0.176316
vt 0.744326 0.092064
vt 0.828578 0.092064
vt 0.828578 0.176316
vt 0.828578 0.260568
vt 0.744326 0.260568
vt 0.828578 0.344819
vt 0.744326 0.344819
vt 0.744326 0.260568
vt 0.828578 0.260568
vt 0.926769 0.662349
vt 0.926769 0.581985
vt 0.929097 0.581985
vt 0.929097 0.662349
vt 0.826634 0.427127
vt 0.826634 0.346764
vt 0.828578 0.344819
vt 0.828578 0.429071
vt 0.746270 0.346764
vt 0.744326 0.344819
vt 0.746270 0.427127
vt 0.744326 0.429071
vt 0.254423 0.738591
vt 0.174059 0.738591
vt 0.174059 0.658227
vt 0.254423 0.658227
vt 0.926769 0.501622
vt 0.926769 0.421259
vt 0.929097 0.421259
vt 0.929097 0.501622
vt 0.926769 0.501622
vt 0.929097 0.501622
vt 0.929097 0.581985
vt 0.929097 0.662349
vt 0.929097 0.742712
vt 0.926769 0.742712
vt 0.926769 0.662349
s 0
usemtl Material
f 11/1/1 12/2/1 7/3/1 3/4/1
f 4/5/2 3/6/2 7/7/2 8/8/2
f 8/9/3 7/10/3 12/11/3 10/12/3
f 10/13/4 9/14/4 4/15/4 8/10/4
f 9/16/5 11/17/5 3/18/5 4/19/5
f 6/20/3 5/21/3 16/22/3 14/23/3
f 6/24/6 2/25/6 9/26/6 10/27/6
f 2/25/6 1/28/6 11/29/6 9/26/6
f 5/30/6 6/24/6 10/27/6 12/31/6
f 1/28/6 5/30/6 12/31/6 11/29/6
f 14/32/6 16/33/6 15/34/6 13/35/6
f 2/36/4 6/37/4 14/38/4 13/39/4
f 5/21/1 1/40/1 15/41/1 16/42/1
f 1/43/5 2/44/5 13/45/5 15/46/5
o Cube.001
v -0.500507 -0.460922 -0.427289
v -0.500507 0.839078 -0.427289
v -0.500507 -0.460922 -0.527289
v -0.500507 0.839078 -0.527289
v 0.499493 -0.460922 -0.427289
v 0.499493 0.839078 -0.427289
v 0.499493 -0.460922 -0.527289
v 0.499493 0.839078 -0.527289
vn -1.0000 -0.0000 -0.0000
vn -0.0000 -0.0000 -1.0000
vn 1.0000 -0.0000 -0.0000
vn -0.0000 -0.0000 1.0000
vn -0.0000 -1.0000 -0.0000
vn -0.0000 1.0000 -0.0000
vt 0.828578 0.513323
vt 0.744326 0.513323
vt 0.744326 0.429071
vt 0.828578 0.429071
vt 0.828578 0.597575
vt 0.744326 0.597575
vt 0.744326 0.513323
vt 0.828578 0.513323
vt 0.828578 0.681826
vt 0.744326 0.681826
vt 0.828578 0.766078
vt 0.744326 0.766078
vt 0.828578 0.850330
vt 0.744326 0.850330
vt 0.912830 0.007813
vt 0.912830 0.092064
vt 0.828578 0.092064
vt 0.828578 0.007813
s 0
f 17/47/7 18/48/7 20/49/7 19/50/7
f 19/51/8 20/52/8 24/53/8 23/54/8
f 23/55/9 24/56/9 22/52/9 21/51/9
f 21/57/10 22/58/10 18/56/10 17/55/10
f 19/57/11 23/59/11 21/60/11 17/58/11
f 24/61/12 20/62/12 18/63/12 22/64/12
o Cube.002
v -0.500507 0.866515 -0.427289
v -0.500507 1.503912 -0.427289
v -0.500507 0.866515 -0.527289
v -0.500507 1.503912 -0.527289
v 0.499493 0.866515 -0.427289
v 0.499493 1.503912 -0.427289
v 0.499493 0.866515 -0.527289
v 0.499493 1.503912 -0.527289
vn -1.0000 -0.0000 -0.0000
vn -0.0000 -0.0000 -1.0000
vn 1.0000 -0.0000 -0.0000
vn -0.0000 -0.0000 1.0000
vn -0.0000 -1.0000 -0.0000
vn -0.0000 1.0000 -0.0000
vt 0.968078 0.168503
vt 0.926769 0.168503
vt 0.926769 0.084252
vt 0.968078 0.084252
vt 0.968078 0.252755
vt 0.926769 0.252755
vt 0.926769 0.168503
vt 0.968078 0.168503
vt 0.968078 0.337007
vt 0.926769 0.337007
vt 0.968078 0.421259
vt 0.926769 0.421259
vt 0.912830 0.092064
vt 0.912830 0.176316
vt 0.828578 0.176316
vt 0.828578 0.092064
vt 0.912830 0.260568
vt 0.828578 0.260568
s 0
f 25/65/13 26/66/13 28/67/13 27/68/13
f 27/69/14 28/70/14 32/71/14 31/72/14
f 31/73/15 32/74/15 30/70/15 29/69/15
f 29/75/16 30/76/16 26/74/16 25/73/16
f 27/77/17 31/78/17 29/79/17 25/80/17
f 32/78/18 28/81/18 26/82/18 30/79/18
o Cube.003
v -0.448764 0.293869 -0.527777
v -0.448764 0.333869 -0.527777
v -0.448764 0.293869 -0.567777
v -0.448764 0.333869 -0.567777
v -0.408764 0.293869 -0.527777
v -0.408764 0.333869 -0.527777
v -0.408764 0.293869 -0.567777
v -0.408764 0.333869 -0.567777
vn -1.0000 -0.0000 -0.0000
vn -0.0000 -0.0000 -1.0000
vn 1.0000 -0.0000 -0.0000
vn -0.0000 -0.0000 1.0000
vn -0.0000 -1.0000 -0.0000
vn -0.0000 1.0000 -0.0000
vt 0.209705 0.430757
vt 0.125453 0.430757
vt 0.125453 0.346505
vt 0.209705 0.346505
vt 0.158923 0.452509
vt 0.074672 0.452509
vt 0.074672 0.368257
vt 0.158923 0.368257
vt 0.182361 0.568010
vt 0.098109 0.568010
vt 0.098109 0.483759
vt 0.182361 0.483759
vt 0.170642 0.671793
vt 0.086390 0.671793
vt 0.086390 0.587542
vt 0.170642 0.587542
vt 0.178455 0.476481
vt 0.178455 0.560732
vt 0.094203 0.560732
vt 0.094203 0.476481
vt 0.237048 0.517764
vt 0.237048 0.602015
vt 0.152797 0.602015
vt 0.152797 0.517764
s 0
f 33/83/19 34/84/19 36/85/19 35/86/19
f 35/87/20 36/88/20 40/89/20 39/90/20
f 39/91/21 40/92/21 38/93/21 37/94/21
f 37/95/22 38/96/22 34/97/22 33/98/22
f 35/99/23 39/100/23 37/101/23 33/102/23
f 40/103/24 36/104/24 34/105/24 38/106/24
o Cube.004
v -0.448764 0.688753 -0.527777
v -0.448764 0.728753 -0.527777
v -0.448764 0.688753 -0.567777
v -0.448764 0.728753 -0.567777
v -0.408764 0.688753 -0.527777
v -0.408764 0.728753 -0.527777
v -0.408764 0.688753 -0.567777
v -0.408764 0.728753 -0.567777
vn -1.0000 -0.0000 -0.0000
vn -0.0000 -0.0000 -1.0000
vn 1.0000 -0.0000 -0.0000
vn -0.0000 -0.0000 1.0000
vn -0.0000 -1.0000 -0.0000
vn -0.0000 1.0000 -0.0000
vt 0.143298 0.541736
vt 0.059047 0.541736
vt 0.059047 0.457484
vt 0.143298 0.457484
vt 0.157238 0.428002
vt 0.072986 0.428002
vt 0.072986 0.343750
vt 0.157238 0.343750
vt 0.145519 0.340378
vt 0.061267 0.340378
vt 0.061267 0.256127
vt 0.145519 0.256127
vt 0.168956 0.491036
vt 0.084705 0.491036
vt 0.084705 0.406785
vt 0.168956 0.406785
vt 0.165050 0.366036
vt 0.165050 0.450288
vt 0.080798 0.450288
vt 0.080798 0.366036
vt 0.235363 0.403413
vt 0.235363 0.487665
vt 0.151111 0.487665
vt 0.151111 0.403413
s 0
f 41/107/25 42/108/25 44/109/25 43/110/25
f 43/111/26 44/112/26 48/113/26 47/114/26
f 47/115/27 48/116/27 46/117/27 45/118/27
f 45/119/28 46/120/28 42/121/28 41/122/28
f 43/123/29 47/124/29 45/125/29 41/126/29
f 48/127/30 44/128/30 42/129/30 46/130/30
o Cube.005
v -0.448764 0.297556 -0.566510
v -0.448764 0.728753 -0.566510
v -0.408764 0.297556 -0.566510
v -0.408764 0.728753 -0.566510
v -0.448764 0.331362 -0.606510
v -0.448764 0.297556 -0.572703
v -0.448764 0.323840 -0.605662
v -0.448764 0.316694 -0.603162
v -0.448764 0.310285 -0.599134
v -0.448764 0.304932 -0.593781
v -0.448764 0.300904 -0.587371
v -0.448764 0.298404 -0.580226
v -0.448764 0.728753 -0.572703
v -0.448764 0.694947 -0.606510
v -0.448764 0.727906 -0.580226
v -0.448764 0.725406 -0.587371
v -0.448764 0.721378 -0.593781
v -0.448764 0.716025 -0.599134
v -0.448764 0.709615 -0.603162
v -0.448764 0.702470 -0.605662
v -0.408764 0.297556 -0.572703
v -0.408764 0.331362 -0.606510
v -0.408764 0.298404 -0.580226
v -0.408764 0.300904 -0.587371
v -0.408764 0.304932 -0.593781
v -0.408764 0.310285 -0.599134
v -0.408764 0.316694 -0.603162
v -0.408764 0.323840 -0.605662
v -0.408764 0.694947 -0.606510
v -0.408764 0.728753 -0.572703
v -0.408764 0.702470 -0.605662
v -0.408764 0.709615 -0.603162
v -0.408764 0.716025 -0.599134
v -0.408764 0.721378 -0.593781
v -0.408764 0.725406 -0.587371
v -0.408764 0.727906 -0.580226
vn -0.0000 -0.0000 -1.0000
vn -0.0000 1.0000 -0.0000
vn -0.0000 -0.0000 1.0000
vn -1.0000 -0.0000 -0.0000
vn 1.0000 -0.0000 -0.0000
vn -0.0000 -0.9937 -0.1120
vn -0.0000 -0.9439 -0.3303
vn -0.0000 -0.8467 -0.5320
vn -0.0000 -0.7071 -0.7071
vn -0.0000 -0.5320 -0.8467
vn -0.0000 -0.3303 -0.9439
vn -0.0000 -0.1120 -0.9937
vn -0.0000 0.9937 -0.1120
vn -0.0000 0.9439 -0.3303
vn -0.0000 0.8467 -0.5320
vn -0.0000 0.7071 -0.7071
vn -0.0000 0.5320 -0.8467
vn -0.0000 0.3303 -0.9439
vn -0.0000 0.1120 -0.9937
vn -0.0000 -1.0000 -0.0000
vt 0.114885 0.810212
vt 0.114885 0.044396
vt 0.199137 0.044396
vt 0.199137 0.810212
vt 0.185497 0.472656
vt 0.185497 0.556908
vt 0.172863 0.556908
vt 0.172863 0.472656
vt 0.092599 0.904321
vt 0.092599 -0.003906
vt 0.176851 -0.003906
vt 0.176851 0.904321
vt 0.189897 -0.003906
vt 0.205741 -0.002121
vt 0.220792 0.003145
vt 0.234293 0.011629
vt 0.245568 0.022903
vt 0.254051 0.036404
vt 0.259317 0.051455
vt 0.261102 0.067299
vt 0.261102 0.833116
vt 0.259317 0.848960
vt 0.254051 0.864011
vt 0.245568 0.877512
vt 0.234293 0.888786
vt 0.220792 0.897270
vt 0.205741 0.902536
vt 0.189897 0.904321
vt 0.101839 0.908227
vt 0.085994 0.906442
vt 0.070944 0.901176
vt 0.057443 0.892693
vt 0.046168 0.881418
vt 0.037685 0.867917
vt 0.032419 0.852867
vt 0.030634 0.837022
vt 0.030634 0.071206
vt 0.032419 0.055361
vt 0.037685 0.040311
vt 0.046168 0.026810
vt 0.057443 0.015535
vt 0.070944 0.007052
vt 0.085994 0.001785
vt 0.101839 0.000000
vt 0.114885 0.000000
vt 0.114885 0.908227
vt 0.315020 0.658227
vt 0.315020 0.742479
vt 0.299230 0.742479
vt 0.299230 0.658227
vt 0.283342 0.742479
vt 0.283342 0.658227
vt 0.268153 0.742479
vt 0.268153 0.658227
vt 0.254423 0.742479
vt 0.254423 0.658227
vt 0.199137 0.854608
vt 0.114885 0.854608
vt 0.114885 0.841107
vt 0.199137 0.841107
vt 0.114885 0.826057
vt 0.199137 0.826057
vt 0.201286 0.472656
vt 0.201286 0.556908
vt 0.217174 0.472656
vt 0.217174 0.556908
vt 0.232364 0.472656
vt 0.232364 0.556908
vt 0.246094 0.472656
vt 0.246094 0.556908
vt 0.114885 0.000000
vt 0.199137 0.000000
vt 0.199137 0.013501
vt 0.114885 0.013501
vt 0.199137 0.028551
vt 0.114885 0.028551
vt 0.327654 0.658227
vt 0.327654 0.742479
s 0
f 53/131/31 62/132/31 77/133/31 70/134/31
f 78/135/32 61/136/32 50/137/32 52/138/32
f 51/139/33 52/140/33 50/141/33 49/142/33
f 49/142/34 50/141/34 61/143/34 63/144/34 64/145/34 65/146/34 66/147/34 67/148/34 68/149/34 62/150/34 53/151/34 55/152/34 56/153/34 57/154/34 58/155/34 59/156/34 60/157/34 54/158/34
f 69/159/35 71/160/35 72/161/35 73/162/35 74/163/35 75/164/35 76/165/35 70/166/35 77/167/35 79/168/35 80/169/35 81/170/35 82/171/35 83/172/35 84/173/35 78/174/35 52/175/35 51/176/35
f 69/177/36 54/178/36 60/179/36 71/180/36
f 71/180/37 60/179/37 59/181/37 72/182/37
f 72/182/38 59/181/38 58/183/38 73/184/38
f 73/184/39 58/183/39 57/185/39 74/186/39
f 74/187/40 57/188/40 56/189/40 75/190/40
f 75/190/41 56/189/41 55/191/41 76/192/41
f 76/192/42 55/191/42 53/131/42 70/134/42
f 61/136/43 78/135/43 84/193/43 63/194/43
f 63/194/44 84/193/44 83/195/44 64/196/44
f 64/196/45 83/195/45 82/197/45 65/198/45
f 65/198/46 82/197/46 81/199/46 66/200/46
f 66/201/47 81/202/47 80/203/47 67/204/47
f 67/204/48 80/203/48 79/205/48 68/206/48
f 68/206/49 79/205/49 77/133/49 62/132/49
f 54/178/50 69/177/50 51/207/50 49/208/50
o Cube.006
v -0.448764 0.952320 -0.527777
v -0.448764 0.992320 -0.527777
v -0.448764 0.952320 -0.567777
v -0.448764 0.992320 -0.567777
v -0.408764 0.952320 -0.527777
v -0.408764 0.992320 -0.527777
v -0.408764 0.952320 -0.567777
v -0.408764 0.992320 -0.567777
vn -1.0000 -0.0000 -0.0000
vn -0.0000 -0.0000 -1.0000
vn 1.0000 -0.0000 -0.0000
vn -0.0000 -0.0000 1.0000
vn -0.0000 -1.0000 -0.0000
vn -0.0000 1.0000 -0.0000
vt 0.180675 0.431292
vt 0.096423 0.431292
vt 0.096423 0.347040
vt 0.180675 0.347040
vt 0.153331 0.535075
vt 0.069080 0.535075
vt 0.069080 0.450823
vt 0.153331 0.450823
vt 0.165050 0.658389
vt 0.080798 0.658389
vt 0.080798 0.574137
vt 0.165050 0.574137
vt 0.180675 0.500453
vt 0.096423 0.500453
vt 0.096423 0.416201
vt 0.180675 0.416201
vt 0.176769 0.469203
vt 0.176769 0.553455
vt 0.092517 0.553455
vt 0.092517 0.469203
vt 0.162377 0.466821
vt 0.162377 0.551073
vt 0.078125 0.551073
vt 0.078125 0.466821
s 0
f 85/209/51 86/210/51 88/211/51 87/212/51
f 87/213/52 88/214/52 92/215/52 91/216/52
f 91/217/53 92/218/53 90/219/53 89/220/53
f 89/221/54 90/222/54 86/223/54 85/224/54
f 87/225/55 91/226/55 89/227/55 85/228/55
f 92/229/56 88/230/56 86/231/56 90/232/56
o Cube.007
v -0.448764 1.347204 -0.527777
v -0.448764 1.387204 -0.527777
v -0.448764 1.347204 -0.567777
v -0.448764 1.387204 -0.567777
v -0.408764 1.347204 -0.527777
v -0.408764 1.387204 -0.527777
v -0.408764 1.347204 -0.567777
v -0.408764 1.387204 -0.567777
vn -1.0000 -0.0000 -0.0000
vn -0.0000 -0.0000 -1.0000
vn 1.0000 -0.0000 -0.0000
vn -0.0000 -0.0000 1.0000
vn -0.0000 -1.0000 -0.0000
vn -0.0000 1.0000 -0.0000
vt 0.106003 0.429979
vt 0.021752 0.429979
vt 0.021752 0.345727
vt 0.106003 0.345727
vt 0.139474 0.461229
vt 0.055222 0.461229
vt 0.055222 0.376977
vt 0.139474 0.376978
vt 0.145601 0.621385
vt 0.061349 0.621385
vt 0.061349 0.537134
vt 0.145601 0.537134
vt 0.147821 0.445604
vt 0.063569 0.445604
vt 0.063569 0.361353
vt 0.147821 0.361353
vt 0.177385 0.416040
vt 0.177385 0.500292
vt 0.093134 0.500292
vt 0.093134 0.416040
vt 0.167887 0.541040
vt 0.167887 0.625292
vt 0.083635 0.625292
vt 0.083635 0.541040
s 0
f 93/233/57 94/234/57 96/235/57 95/236/57
f 95/237/58 96/238/58 100/239/58 99/240/58
f 99/241/59 100/242/59 98/243/59 97/244/59
f 97/245/60 98/246/60 94/247/60 93/248/60
f 95/249/61 99/250/61 97/251/61 93/252/61
f 100/253/62 96/254/62 94/255/62 98/256/62
o Cube.008
v -0.448764 0.956007 -0.566510
v -0.448764 1.387204 -0.566510
v -0.408764 0.956007 -0.566510
v -0.408764 1.387204 -0.566510
v -0.448764 1.013655 -0.606510
v -0.448764 0.956007 -0.566510
v -0.448764 1.000827 -0.605507
v -0.448764 0.988643 -0.602548
v -0.448764 0.977712 -0.597783
v -0.448764 0.968584 -0.591449
v -0.448764 0.961716 -0.583865
v -0.448764 0.957452 -0.575410
v -0.448764 1.387204 -0.566510
v -0.448764 1.329556 -0.606510
v -0.448764 1.385759 -0.575410
v -0.448764 1.381495 -0.583865
v -0.448764 1.374627 -0.591449
v -0.448764 1.365499 -0.597783
v -0.448764 1.354568 -0.602548
v -0.448764 1.342384 -0.605507
v -0.408764 0.956007 -0.566510
v -0.408764 1.013655 -0.606510
v -0.408764 0.957452 -0.575410
v -0.408764 0.961716 -0.583865
v -0.408764 0.968584 -0.591449
v -0.408764 0.977712 -0.597783
v -0.408764 0.988643 -0.602548
v -0.408764 1.000827 -0.605507
v -0.408764 1.329556 -0.606510
v -0.408764 1.387204 -0.566510
v -0.408764 1.342384 -0.605507
v -0.408764 1.354568 -0.602548
v -0.408764 1.365499 -0.597783
v -0.408764 1.374627 -0.591449
v -0.408764 1.381495 -0.583865
v -0.408764 1.385759 -0.575410
vn -0.0000 -0.0000 -1.0000
vn -0.0000 1.0000 -0.0000
vn -0.0000 -0.0000 1.0000
vn -1.0000 -0.0000 -0.0000
vn 1.0000 -0.0000 -0.0000
vn -0.0000 -0.9871 -0.1603
vn -0.0000 -0.8929 -0.4503
vn -0.0000 -0.7412 -0.6712
vn -0.0000 -0.5701 -0.8216
vn -0.0000 -0.3997 -0.9167
vn -0.0000 -0.2359 -0.9718
vn -0.0000 -0.0779 -0.9970
vn -0.0000 0.9871 -0.1603
vn -0.0000 0.8929 -0.4503
vn -0.0000 0.7412 -0.6712
vn -0.0000 0.5701 -0.8216
vn -0.0000 0.3997 -0.9167
vn -0.0000 0.2359 -0.9718
vn -0.0000 0.0779 -0.9970
vt 0.199137 0.741086
vt 0.199137 0.075707
vt 0.283389 0.075707
vt 0.283389 0.741086
vt 0.926769 0.742712
vt 0.000000 0.908227
vt 0.000000 0.000000
vt 0.084252 0.000000
vt 0.084252 0.908227
vt 0.102999 0.003044
vt 0.120807 0.012025
vt 0.136782 0.026491
vt 0.150122 0.045718
vt 0.160160 0.068740
vt 0.166391 0.094405
vt 0.168503 0.121424
vt 0.168503 0.786803
vt 0.166391 0.813823
vt 0.160160 0.839487
vt 0.150122 0.862510
vt 0.136782 0.881737
vt 0.120807 0.896203
vt 0.102999 0.905183
vt 0.092599 0.904321
vt 0.073851 0.901277
vt 0.056043 0.892296
vt 0.040069 0.877830
vt 0.026728 0.858604
vt 0.016691 0.835581
vt 0.010460 0.809916
vt 0.008347 0.782897
vt 0.008347 0.117518
vt 0.010460 0.090499
vt 0.016691 0.064834
vt 0.026728 0.041811
vt 0.040069 0.022585
vt 0.056043 0.008119
vt 0.073851 -0.000862
vt 0.092599 -0.003906
vt 0.094801 0.658228
vt 0.094801 0.742479
vt 0.076622 0.742479
vt 0.076622 0.658228
vt 0.056680 0.742479
vt 0.056680 0.658228
vt 0.035974 0.742479
vt 0.035974 0.658228
vt 0.015543 0.742479
vt 0.015543 0.658228
vt 0.283389 0.816792
vt 0.199137 0.816792
vt 0.199137 0.793770
vt 0.283389 0.793770
vt 0.199137 0.768105
vt 0.283389 0.768105
vt 0.094801 0.742479
vt 0.094801 0.658227
vt 0.112981 0.658227
vt 0.112981 0.742479
vt 0.132923 0.658227
vt 0.132923 0.742479
vt 0.153629 0.658227
vt 0.153629 0.742479
vt 0.174059 0.658227
vt 0.174059 0.742479
vt 0.199137 -0.000000
vt 0.283389 -0.000000
vt 0.283389 0.023023
vt 0.199137 0.023023
vt 0.283389 0.048687
vt 0.199137 0.048687
s 0
f 105/257/63 114/258/63 129/259/63 122/260/63
f 130/261/64 113/261/64 102/261/64 104/261/64
f 103/262/65 104/263/65 102/264/65 101/265/65
f 101/265/66 102/264/66 113/264/66 115/266/66 116/267/66 117/268/66 118/269/66 119/270/66 120/271/66 114/272/66 105/273/66 107/274/66 108/275/66 109/276/66 110/277/66 111/278/66 112/279/66 106/265/66
f 121/280/67 123/281/67 124/282/67 125/283/67 126/284/67 127/285/67 128/286/67 122/287/67 129/288/67 131/289/67 132/290/67 133/291/67 134/292/67 135/293/67 136/294/67 130/295/67 104/295/67 103/280/67
f 121/296/68 106/297/68 112/298/68 123/299/68
f 123/299/69 112/298/69 111/300/69 124/301/69
f 124/301/70 111/300/70 110/302/70 125/303/70
f 125/303/71 110/302/71 109/304/71 126/305/71
f 126/306/72 109/307/72 108/308/72 127/309/72
f 127/309/73 108/308/73 107/310/73 128/311/73
f 128/311/74 107/310/74 105/257/74 122/260/74
f 113/312/75 130/313/75 136/314/75 115/315/75
f 115/315/76 136/314/76 135/316/76 116/317/76
f 116/317/77 135/316/77 134/318/77 117/319/77
f 117/319/78 134/318/78 133/320/78 118/321/78
f 118/322/79 133/323/79 132/324/79 119/325/79
f 119/325/80 132/324/80 131/326/80 120/327/80
f 120/327/81 131/326/81 129/259/81 114/258/81
f 106/261/64 121/261/64 103/261/64 101/261/64
