# Blender 4.3.2
# www.blender.org
mtllib myappliances_tv.mtl
o Cube
v 0.461556 0.323089 0.407013
v 0.461556 -0.323089 0.407013
v -0.461556 0.323089 0.407013
v -0.461556 -0.323089 0.407013
v 0.468100 0.327670 0.347013
v 0.500000 0.350000 0.347898
v 0.468100 -0.327670 0.347013
v 0.500000 -0.350000 0.347898
v -0.468100 0.327670 0.347013
v -0.500000 0.350000 0.347898
v -0.468100 -0.327670 0.347013
v -0.500000 -0.350000 0.347898
v -0.485235 -0.339664 0.347013
v 0.485235 -0.339664 0.347013
v 0.485235 0.339664 0.347013
v -0.485235 0.339664 0.347013
v -0.468100 -0.327670 0.372163
v 0.468100 -0.327670 0.372163
v 0.468100 0.327670 0.372163
v -0.468100 0.327670 0.372163
v -0.500000 -0.350000 0.407013
v -0.500000 0.350000 0.407013
v 0.500000 0.350000 0.407013
v 0.500000 -0.350000 0.407013
v -0.129569 -0.090698 0.441816
v -0.129569 0.090698 0.441816
v 0.129569 0.090698 0.441816
v 0.129569 -0.090698 0.441816
v -0.386573 -0.270601 0.441816
v -0.386573 0.270601 0.441816
v 0.386573 0.270601 0.441816
v 0.386573 -0.270601 0.441816
v -0.129569 -0.090698 0.488665
v -0.129569 0.090698 0.488665
v 0.129569 0.090698 0.488665
v 0.129569 -0.090698 0.488665
vn -0.0000 -1.0000 -0.0000
vn -0.0000 0.5526 0.8334
vn -1.0000 -0.0000 -0.0000
vn -0.0000 1.0000 -0.0000
vn 1.0000 -0.0000 -0.0000
vn -0.0000 -0.0854 -0.9963
vn 0.0599 -0.0000 -0.9982
vn -0.0599 -0.0000 -0.9982
vn -0.0000 0.0854 -0.9963
vn -0.0000 -0.0000 -1.0000
vn -0.0000 -0.0000 1.0000
vn -0.4210 -0.0000 0.9071
vn -0.0000 -0.5526 0.8334
vn 0.4210 -0.0000 0.9071
vt 0.769426 0.000000
vt 0.769426 0.259114
vt 0.514270 0.259114
vt 0.514270 0.000000
vt 0.744608 0.757418
vt 0.744608 0.518227
vt 0.895455 0.537656
vt 0.895455 0.737989
vt 0.513020 0.263020
vt 0.513020 0.003906
vt 0.768176 0.003906
vt 0.768176 0.263020
vt 0.514270 0.518227
vt 0.514270 0.259114
vt 0.769426 0.259114
vt 0.769426 0.518227
vt 0.513020 0.260415
vt 0.513020 0.001301
vt 0.768176 0.001301
vt 0.768176 0.260415
vt 0.766926 0.003906
vt 0.766926 0.263020
vt 0.763100 0.259194
vt 0.763100 0.007732
vt 0.507813 0.003906
vt 0.511638 0.007732
vt 0.511638 0.259194
vt 0.507812 0.263020
vt 0.887719 0.481773
vt 0.887719 0.239191
vt 0.996278 0.239191
vt 0.996278 0.481773
vt 0.758660 0.254754
vt 0.758660 0.012172
vt 0.516078 0.012172
vt 0.516078 0.254754
vt 0.254301 0.260809
vt 0.011719 0.260809
vt 0.011719 0.018227
vt 0.254301 0.018227
vt 0.551474 1.000000
vt 0.551474 0.757418
vt 0.660033 0.757418
vt 0.660033 1.000000
vt 0.768592 0.757418
vt 0.768592 1.000000
vt 0.551474 0.757418
vt 0.551474 1.000000
vt 0.442915 1.000000
vt 0.442915 0.757418
vt 0.756965 0.011263
vt 0.517774 0.011263
vt 0.507812 0.001301
vt 0.766926 0.001301
vt 0.517774 0.250453
vt 0.756965 0.250453
vt 0.766926 0.260415
vt 0.507812 0.260415
vt 0.835738 0.959633
vt 0.768592 0.959633
vt 0.835738 0.757418
vt 0.593762 0.518227
vt 0.593762 0.757418
vt 0.442915 0.737989
vt 0.442915 0.537656
vt 0.920272 -0.000000
vt 0.920272 0.239191
vt 0.769426 0.219762
vt 0.769426 0.019429
vt 0.744608 0.537656
vt 0.744608 0.737989
vt 0.376322 0.584820
vt 0.309176 0.584820
vt 0.242582 0.518227
vt 0.442915 0.518227
vt 0.309176 0.651967
vt 0.376322 0.651967
vt 0.442915 0.718560
vt 0.242582 0.718560
vt 0.201438 0.827955
vt 0.134292 0.827955
vt 0.134292 0.760809
vt 0.201438 0.760809
vt 0.000000 0.760809
vt 0.067146 0.760809
vt 0.067146 0.963025
vt 0.000000 0.963025
vt 0.835738 0.757418
vt 0.902884 0.757418
vt 0.902884 0.959633
vt 0.835738 0.959633
vt 0.134292 0.963025
s 0
usemtl Material
f 12/1/1 8/2/1 24/3/1 21/4/1
f 1/5/2 3/6/2 30/7/2 31/8/2
f 21/9/3 22/10/3 10/11/3 12/12/3
f 6/13/4 10/14/4 22/15/4 23/16/4
f 8/17/5 6/18/5 23/19/5 24/20/5
f 8/21/6 12/22/6 13/23/6 14/24/6
f 6/25/7 8/21/7 14/24/7 15/26/7
f 16/27/8 13/23/8 12/22/8 10/28/8
f 10/28/9 6/25/9 15/26/9 16/27/9
f 11/29/5 9/30/5 20/31/5 17/32/5
f 11/33/10 7/34/10 14/24/10 13/23/10
f 7/34/10 5/35/10 15/26/10 14/24/10
f 9/36/10 11/33/10 13/23/10 16/27/10
f 5/35/10 9/36/10 16/27/10 15/26/10
f 17/37/10 20/38/10 19/39/10 18/40/10
f 7/41/4 11/42/4 17/43/4 18/44/4
f 9/45/1 5/46/1 19/44/1 20/43/1
f 5/47/3 7/48/3 18/49/3 19/50/3
f 4/51/11 3/52/11 22/53/11 21/54/11
f 1/55/11 2/56/11 24/57/11 23/58/11
f 3/52/11 1/55/11 23/58/11 22/53/11
f 2/56/11 4/51/11 21/54/11 24/57/11
f 28/59/5 27/60/5 35/45/5 36/61/5
f 3/62/12 4/63/12 29/64/12 30/65/12
f 4/66/13 2/67/13 32/68/13 29/69/13
f 2/63/14 1/62/14 31/70/14 32/71/14
f 25/72/11 26/73/11 30/74/11 29/75/11
f 27/76/11 28/77/11 32/78/11 31/79/11
f 26/73/11 27/76/11 31/79/11 30/74/11
f 28/77/11 25/72/11 29/75/11 32/78/11
f 36/80/11 35/81/11 34/82/11 33/83/11
f 27/84/4 26/85/4 34/86/4 35/87/4
f 26/88/3 25/89/3 33/90/3 34/91/3
f 25/92/1 28/86/1 36/85/1 33/82/1
